/* XPM */
static char * 0_xpm[] = {
"58 41 8 1",
" 	c None",
".	c #5A395A",
"+	c #DEBD5A",
"@	c #000000",
"#	c #FFFFFF",
"$	c #DEDEBD",
"%	c #FFFFF7",
"&	c #F9B7FF",
"                                                          ",
"                                                          ",
"                          ........                        ",
"                       ...++++++++..                      ",
"                     ..+++++++++++++.                     ",
"                   ..++++++++++++++++.                    ",
"                  .++.+++++++++++++++.                    ",
"                 .+++.++++++++++++++..                    ",
"                 .++++++++++++++++++++.                   ",
"                .++++++++++++++++++++++.                  ",
"                .++++++++@@@@++++++++++.                  ",
"                .+++++++@####@+++@@@@++.                  ",
"                .+++++++@#####@+@####@+.                  ",
"                .+.+@@@@######@+@####@.                   ",
"                 ..+.$%@######@@#####@                    ",
"                  ...%$@######@@#####@                    ",
"                    .$%@#####@%@#####@                    ",
"                     .$%@####@$%@###@                     ",
"                     ...%@@@@$%$%@@@                      ",
"                       .$%$%$%$.$.                        ",
"                       .%.%$%$.$%.                        ",
"                      .....%$%$%..                        ",
"                     %.&&&..%$%.&&..                      ",
"                    %.&&&&&....&.&&.                      ",
"                    .&&&&&&.&&.&.&.&.                     ",
"                   .&&&&&&&&.&.&.&.&.                     ",
"                   .&&&&&.&&.&..&&.&&.                    ",
"                  .&&&&&.&&&&...&&.&..                    ",
"                  ...&&&.&&&&..&&&..$%.                   ",
"                  .%$.&.&&&&&&.&&&.$ $.                   ",
"                 .%$%$.&&&&&&&.&&&. $.                    ",
"                  .%$............. ..                     ",
"                   .. ..&&&&&&&&.                         ",
"                       .&&&&&&&&.                         ",
"                        .&&&&.&&.                         ",
"                        .&&&.&&.                          ",
"                        .&&&.&&.                          ",
"                        ..........                        ",
"                       ............                       ",
"                        ..........                        ",
"                                                          "};
