/* XPM */
static char * 4_xpm[] = {
"58 41 9 1",
" 	c None",
".	c #5A395A",
"+	c #DEBD5A",
"@	c #FFFFFF",
"#	c #000000",
"$	c #DEDEBD",
"%	c #FFFFF7",
"&	c #F9B7FF",
"*	c #FFFF9E",
"                     .                                    ",
"               ......+..                                  ",
"             ..++.++++++.                                 ",
"            .++++++++++++..                               ",
"           .++++++++++++.++.                              ",
"           .++++++++++++++++.                             ",
"           ..+++++++++++++++.                             ",
"          .+++++++++++++++++.                             ",
"        ..+++++++++++++++++++.                            ",
"        .++++++++++++++++++++.                            ",
"        .+++++++++++++++++++.                             ",
"        .++++++...++++++++++.                             ",
"        .+++++.@@.+++++++++..   .                         ",
"        .+++++.@##...++++...   .$.                        ",
"        .++++.@#@@@@......     .%.                        ",
"         ..++.@#@@@@@.@@@.   ..&..                        ",
"           ...#@@@.@@@@@@@...&&&&.                        ",
"            #@#.@@.@@@@@@@.&&&&&.                         ",
"            ##@.@@.@......&&&&&&.                         ",
"             ###.@...&&&&&&&&&&.                          ",
"                ..&&&&&&&&&&&&.                           ",
"               .&&&&&&&&&&&&&.                            ",
"              .&&&&&&&&&&&&&..                            ",
"             .&&&&&&&&&&&&&&.                             ",
"            .&&&&&&&&&&&&&&&&.                            ",
"           .&&&&&.&&&&&&&&&&&.                            ",
"           .&&&...&&&&&&&&&&&&.                           ",
"          .$.&.  .&&&&&......&.                           ",
"         .$ ..   .&&&...&&&&..*.                          ",
"          ..     .&...&&&&&&&&.                           ",
"                 .. ..&&&&&&&&.                           ",
"                    .&&&&&&&&&.                           ",
"                    .&&&&&.&&&&.                          ",
"                   .&&&&&..&&&&.                          ",
"                   .&&&&&..&&&&.                          ",
"                  .&&&&&.  .&&&&.                         ",
"                  .&&&&&.  .&&&&.                         ",
"                 .......    .....                         ",
"                .........  ......                         ",
"                 .......    ....                          ",
"                                                          "};
