/* XPM */
static char * 5_xpm[] = {
"58 41 8 1",
" 	c None",
".	c #5A395A",
"+	c #DEBD5A",
"@	c #DEDEBD",
"#	c #000000",
"$	c #FFFFFF",
"%	c #FFFFF7",
"&	c #FFFF9E",
"                  .......                                 ",
"               . .+++++++....                             ",
"              .+.++++++++++++.                            ",
"            ..++++++++++++++++.                           ",
"           ..+++++++++++++++++.                           ",
"           .++++++++++++++++++.                           ",
"           .+++++++++++++++++...                          ",
"           .+++++++++++++++++++..                         ",
"           .++++++++++++++++++++.                         ",
"            .++++..+++++++++++++.                         ",
"             .... @.++++++++++++.                         ",
"              ######.++++++++++.                          ",
"              #$.@$@..++++++++. .                         ",
"              #$.$@$@.++++++++..@.                        ",
"               #.@$@.++++++++...%.                        ",
"                 .@$@..+++++......                        ",
"                 .$@$@...+++.&&...                        ",
"                  ...$......&&&&.                         ",
"                    ...&&&&&&&&&.                         ",
"                  ...&&&&&&&&&&..                         ",
"                 ..&&&&&&&&&&&...                         ",
"                .&&&&&&&&&&&&&.                           ",
"               .&&&&&&&&&&&&&&&.                          ",
"              .&&&&&&&&&&&&&&&&.                          ",
"             .&&&&&&&&&&&&&&&&&.                          ",
"            .&&&&&&.&&&&&&&&&&&.                          ",
"            ..&&&..&&&&&&&&&&&&&.                         ",
"          ..@..&. .&&&&&&&&&&&&&.                         ",
"         .@ .. .  .&&&&&&.....&&.                         ",
"          ..      .&&....&&&&&.&.                         ",
"                   ...&&&&&&&&&.                          ",
"                    .&&&&&&&&&&.                          ",
"                    .&&&&&.&&&&.                          ",
"                   .&&&&&..&&&&.                          ",
"                   .&&&&&..&&&&.                          ",
"                  .&&&&&.  .&&&&.                         ",
"                  .&&&&&.  .&&&&.                         ",
"                 .......    .....                         ",
"                .........  ......                         ",
"                 .......    ....                          ",
"                                                          "};
